<?xml version="1.0" standalone="no"?>
<!DOCTYPE svg PUBLIC "-//W3C//DTD SVG 20010904//EN"
 "http://www.w3.org/TR/2001/REC-SVG-20010904/DTD/svg10.dtd">
<svg version="1.0" xmlns="http://www.w3.org/2000/svg"
 width="80.000000pt" height="80.000000pt" viewBox="0 0 80.000000 80.000000"
 preserveAspectRatio="xMidYMid meet">

<g transform="translate(0.000000,80.000000) scale(0.100000,-0.100000)"
fill="#000000" stroke="none">
<path d="M355 609 c-80 -19 -95 -29 -126 -92 -20 -39 -32 -78 -34 -112 -2 -51
-2 -52 16 -34 10 10 22 37 25 59 10 59 88 130 143 130 56 0 84 -13 135 -64 53
-52 61 -75 51 -160 -14 -131 -126 -212 -225 -161 -18 9 -30 11 -33 5 -3 -6 -4
-5 -3 2 1 7 -8 28 -21 47 -13 19 -26 51 -29 73 -7 39 -20 50 -30 23 -3 -8 -14
-17 -25 -20 -16 -5 -19 -16 -19 -76 0 -53 3 -69 14 -69 8 0 21 -3 30 -6 12 -5
16 0 16 21 0 22 3 25 13 16 8 -6 17 -8 20 -4 4 3 7 1 7 -5 0 -21 55 -41 131
-48 l74 -6 40 41 c22 22 54 66 70 98 25 48 30 70 29 123 -1 76 -11 123 -24
115 -5 -3 -7 0 -4 8 3 10 -18 28 -68 57 -80 46 -113 54 -173 39z m137 -53 c15
-11 26 -21 25 -22 -4 -4 -99 44 -112 57 -16 16 58 -13 87 -35z m-107 24 c-3
-5 -13 -10 -21 -10 -8 0 -12 5 -9 10 3 6 13 10 21 10 8 0 12 -4 9 -10z m222
-162 c-3 -8 -6 -5 -6 6 -1 11 2 17 5 13 3 -3 4 -12 1 -19z m-350 -190 c-3 -8
-6 -5 -6 6 -1 11 2 17 5 13 3 -3 4 -12 1 -19z m-30 -50 c-3 -8 -6 -5 -6 6 -1
11 2 17 5 13 3 -3 4 -12 1 -19z m293 12 c0 -5 -10 -15 -22 -21 -23 -12 -23
-12 -4 10 21 23 26 26 26 11z"/>
<path d="M270 431 c-5 -11 -10 -33 -10 -50 l0 -31 20 20 c26 26 33 25 45 -2
10 -23 55 -39 55 -20 0 5 -7 9 -16 8 -9 0 -19 5 -21 12 -3 7 5 12 21 12 30 0
33 11 10 31 -12 10 -20 10 -35 0 -16 -9 -20 -9 -18 1 5 42 -31 55 -51 19z m40
-5 c0 -16 -18 -31 -27 -22 -8 8 5 36 17 36 5 0 10 -6 10 -14z"/>
<path d="M471 396 c-14 -56 -14 -92 0 -54 6 15 16 25 23 22 20 -8 39 23 32 51
-11 43 -42 32 -55 -19z m45 -5 c-13 -20 -26 -11 -26 16 0 25 1 26 16 11 9 -9
13 -21 10 -27z"/>
<path d="M410 384 c-13 -32 -13 -51 -1 -38 10 11 24 64 16 64 -3 0 -10 -12
-15 -26z"/>
</g>
</svg>
